<svg xmlns="http://www.w3.org/2000/svg" xmlns:xlink="http://www.w3.org/1999/xlink" viewBox="0 0 566.929 566.929" enable-background="new 0 0 566.929 566.929"><path d="m152.38 166.1h-115.36c-7.979 0-14.471-6.492-14.471-14.471v-115.36c0-7.979 6.492-14.47 14.471-14.47h115.36c7.979 0 14.471 6.492 14.471 14.47v115.36c-.001 7.979-6.492 14.471-14.471 14.471m-115.36-139.08c-5.096 0-9.242 4.146-9.242 9.242v115.36c0 5.096 4.146 9.242 9.242 9.242h115.36c5.096 0 9.242-4.147 9.242-9.242v-115.36c0-5.096-4.146-9.242-9.242-9.242h-115.36" id="0" stroke-width=".58"/><g stroke-width=".58"><path d="m79.49 119.03h35.22v5.252h-35.22z"/><path d="m69.4 94.69h8.498v8.02h-8.498z"/><path d="m111.5 94.69h8.497v8.02h-8.497z"/><path d="m88.2 79.85h-29.11c-1.65 0-2.992 1.454-2.992 3.241v21.494c0 1.787 1.342 3.241 2.992 3.241h29.11c1.65 0 2.992-1.454 2.992-3.241v-21.494c0-1.787-1.342-3.241-2.992-3.241m-1.901 5.761v16.455c0 .35-.256.635-.572.635h-24.16c-.315 0-.57-.285-.57-.635v-16.455c0-.351.256-.635.57-.635h24.16c.316.001.572.286.572.635"/><path d="m130.3 79.85h-29.1c-1.65 0-2.993 1.454-2.993 3.241v21.494c0 1.787 1.343 3.241 2.993 3.241h1.902v-22.21c0-.351.256-.635.57-.635h24.16c.314 0 .57.285.57.635v22.21h1.903c1.65 0 2.992-1.454 2.992-3.241v-21.494c0-1.787-1.343-3.241-2.992-3.241"/><path d="m27.777 91.21h28.365v5.252h-28.365z"/><path d="m91.08 92.26h7.123v5.252h-7.123z"/><path d="m133.24 91.21h28.379v5.252h-28.379z"/><path d="m150.17 133.95c-2.064 0-3.744-1.603-3.744-3.574v-103.38h-5.252v106.43c0 3.123 2.618 5.664 5.838 5.664h14.653v-5.139h-11.49"/><path d="m48.79 44.773c-3.218 0-5.838 2.618-5.838 5.832v110.28h5.258v-107.12c0-2.065 1.679-3.744 3.742-3.744h89.22v-5.252h-92.38"/></g><use xlink:href="#0" width="566.93" height="566.93"/><g stroke-miterlimit="10" transform="translate(-16.11-349.51)" stroke="#000" stroke-width="2"><path d="m259.58 444.17h31.682v3.02h-31.682z"/><path d="m252.68 425.86h6.126v5.673h-6.126z"/><path d="m292.93 425.86h6.126v5.673h-6.126z"/><path d="m269.65 411.69h-27.833c-1.029 0-1.862.94-1.862 2.1v20.557c0 1.16.833 2.1 1.862 2.1h27.833c1.028 0 1.862-.939 1.862-2.1v-20.557c0-1.159-.834-2.1-1.862-2.1zm-.819 20.246c0 .889-.692 1.607-1.546 1.607h-23.1c-.854 0-1.546-.719-1.546-1.607v-15.736c0-.888.692-1.607 1.546-1.607h23.1c.854 0 1.546.72 1.546 1.607v15.736z"/><path d="m309.91 411.69h-27.834c-1.029 0-1.862.94-1.862 2.1v20.557c0 1.16.833 2.1 1.862 2.1h.819v-20.246c0-.888.692-1.607 1.546-1.607h23.1c.854 0 1.545.72 1.545 1.607v20.246h.819c1.028 0 1.861-.939 1.861-2.1v-20.557c.001-1.159-.833-2.1-1.86-2.1z"/></g><path d="m216.51 72.05h6.744v3.02h-6.744z"/><path d="m254.51 73.05h9.594v3.02h-9.594z"/><path d="m293.89 72.05h8.341v3.02h-8.341z"/><g stroke-miterlimit="10" transform="translate(-16.11-349.51)" stroke="#000"><g stroke-width="2"><path d="m320.97 373.89v65.973c0 2.438 2.051 4.416 4.58 4.416h29.25v2.916h-32.28c-2.529 0-4.58-1.978-4.58-4.416v-68.7c0-.125 0-.066 0-.188h3.02z"/><path d="m232.67 456.67v-48.918c0-2.53 2.05-4.58 4.579-4.58h115.19v-3.02h-118.21c-2.53 0-4.581 2.05-4.581 4.58v51.56c0 .13.006.26.018.387h3.01z"/><path d="m262.72 452.77h-30.967c-1.145 0-2.071.717-2.071 1.6v53.654c0 .883.927 1.599 2.071 1.599h.911v-53.42c0-.677.771-1.225 1.72-1.225h25.705c.95 0 1.72.548 1.72 1.225v53.42h.911c1.144 0 2.071-.716 2.071-1.599v-53.654c0-.884-.928-1.6-2.071-1.6z"/><path d="m303.09 452.77h-30.967c-1.144 0-2.071.717-2.071 1.6v53.654c0 .883.928 1.599 2.071 1.599h.912v-53.42c0-.677.77-1.225 1.719-1.225h25.705c.95 0 1.72.548 1.72 1.225v53.42h.911c1.145 0 2.071-.716 2.071-1.599v-53.654c0-.884-.927-1.6-2.071-1.6z"/><path d="m343.2 452.77h-30.967c-1.145 0-2.071.717-2.071 1.6v53.654c0 .883.927 1.599 2.071 1.599h.911v-53.42c0-.677.77-1.225 1.72-1.225h25.705c.949 0 1.72.548 1.72 1.225v53.42h.911c1.144 0 2.071-.716 2.071-1.599v-53.654c0-.884-.927-1.6-2.071-1.6z"/><path d="m246.77 452.77h2.939v56.853h-2.939z"/><path d="m270.05 470.06h35.11v2.269h-35.11z"/></g><path d="m353.38 497.34c0 6.262-5.076 11.338-11.339 11.338h-110.32c-6.263 0-11.339-5.076-11.339-11.338v-110.32c0-6.262 5.076-11.338 11.339-11.338h110.32c6.263 0 11.339 5.076 11.339 11.338v110.32z" fill="none" stroke-width="5"/></g></svg>